<mxfile host="app.diagrams.net" agent="Mozilla/5.0 (Windows NT 10.0; Win64; x64) AppleWebKit/537.36 (KHTML, like Gecko) Chrome/127.0.0.0 Safari/537.36" version="24.7.5">
  <diagram name="페이지-1" id="OJLNk0O51Z1MZeV_Ti2X">
    <mxGraphModel dx="2514" dy="908" grid="1" gridSize="10" guides="1" tooltips="1" connect="1" arrows="1" fold="1" page="1" pageScale="1" pageWidth="827" pageHeight="1169" math="0" shadow="0">
      <root>
        <mxCell id="0" />
        <mxCell id="1" parent="0" />
        <mxCell id="LQ0dk2JoQx-oWWSQppy4-17" style="rounded=0;orthogonalLoop=1;jettySize=auto;html=1;" edge="1" parent="1" source="LQ0dk2JoQx-oWWSQppy4-1" target="LQ0dk2JoQx-oWWSQppy4-9">
          <mxGeometry relative="1" as="geometry" />
        </mxCell>
        <mxCell id="LQ0dk2JoQx-oWWSQppy4-34" style="rounded=0;orthogonalLoop=1;jettySize=auto;html=1;" edge="1" parent="1" source="LQ0dk2JoQx-oWWSQppy4-1" target="LQ0dk2JoQx-oWWSQppy4-21">
          <mxGeometry relative="1" as="geometry" />
        </mxCell>
        <mxCell id="LQ0dk2JoQx-oWWSQppy4-35" style="rounded=0;orthogonalLoop=1;jettySize=auto;html=1;entryX=0.5;entryY=0;entryDx=0;entryDy=0;" edge="1" parent="1" source="LQ0dk2JoQx-oWWSQppy4-1" target="LQ0dk2JoQx-oWWSQppy4-22">
          <mxGeometry relative="1" as="geometry" />
        </mxCell>
        <mxCell id="LQ0dk2JoQx-oWWSQppy4-1" value="상품정보" style="whiteSpace=wrap;html=1;align=center;fillColor=#dae8fc;strokeColor=#6c8ebf;" vertex="1" parent="1">
          <mxGeometry x="643" y="547" width="100" height="40" as="geometry" />
        </mxCell>
        <mxCell id="LQ0dk2JoQx-oWWSQppy4-15" style="rounded=0;orthogonalLoop=1;jettySize=auto;html=1;" edge="1" parent="1" source="LQ0dk2JoQx-oWWSQppy4-2" target="LQ0dk2JoQx-oWWSQppy4-10">
          <mxGeometry relative="1" as="geometry" />
        </mxCell>
        <mxCell id="LQ0dk2JoQx-oWWSQppy4-27" style="rounded=0;orthogonalLoop=1;jettySize=auto;html=1;" edge="1" parent="1" source="LQ0dk2JoQx-oWWSQppy4-2" target="LQ0dk2JoQx-oWWSQppy4-24">
          <mxGeometry relative="1" as="geometry" />
        </mxCell>
        <mxCell id="LQ0dk2JoQx-oWWSQppy4-49" style="rounded=0;orthogonalLoop=1;jettySize=auto;html=1;" edge="1" parent="1" source="LQ0dk2JoQx-oWWSQppy4-2" target="LQ0dk2JoQx-oWWSQppy4-48">
          <mxGeometry relative="1" as="geometry" />
        </mxCell>
        <mxCell id="LQ0dk2JoQx-oWWSQppy4-50" style="rounded=0;orthogonalLoop=1;jettySize=auto;html=1;" edge="1" parent="1" source="LQ0dk2JoQx-oWWSQppy4-2" target="LQ0dk2JoQx-oWWSQppy4-47">
          <mxGeometry relative="1" as="geometry" />
        </mxCell>
        <mxCell id="LQ0dk2JoQx-oWWSQppy4-2" value="사용자정보" style="whiteSpace=wrap;html=1;align=center;fillColor=#dae8fc;strokeColor=#6c8ebf;" vertex="1" parent="1">
          <mxGeometry x="280" y="555" width="100" height="40" as="geometry" />
        </mxCell>
        <mxCell id="LQ0dk2JoQx-oWWSQppy4-18" style="rounded=0;orthogonalLoop=1;jettySize=auto;html=1;entryX=0.5;entryY=0;entryDx=0;entryDy=0;" edge="1" parent="1" source="LQ0dk2JoQx-oWWSQppy4-3" target="LQ0dk2JoQx-oWWSQppy4-12">
          <mxGeometry relative="1" as="geometry" />
        </mxCell>
        <mxCell id="LQ0dk2JoQx-oWWSQppy4-32" style="rounded=0;orthogonalLoop=1;jettySize=auto;html=1;entryX=0.5;entryY=0;entryDx=0;entryDy=0;" edge="1" parent="1" source="LQ0dk2JoQx-oWWSQppy4-3" target="LQ0dk2JoQx-oWWSQppy4-19">
          <mxGeometry relative="1" as="geometry" />
        </mxCell>
        <mxCell id="LQ0dk2JoQx-oWWSQppy4-3" value="매장정보" style="whiteSpace=wrap;html=1;align=center;fillColor=#dae8fc;strokeColor=#6c8ebf;" vertex="1" parent="1">
          <mxGeometry x="1007" y="530" width="100" height="40" as="geometry" />
        </mxCell>
        <mxCell id="LQ0dk2JoQx-oWWSQppy4-29" style="rounded=0;orthogonalLoop=1;jettySize=auto;html=1;" edge="1" parent="1" source="LQ0dk2JoQx-oWWSQppy4-4" target="LQ0dk2JoQx-oWWSQppy4-23">
          <mxGeometry relative="1" as="geometry" />
        </mxCell>
        <mxCell id="LQ0dk2JoQx-oWWSQppy4-31" style="rounded=0;orthogonalLoop=1;jettySize=auto;html=1;" edge="1" parent="1" source="LQ0dk2JoQx-oWWSQppy4-4" target="LQ0dk2JoQx-oWWSQppy4-30">
          <mxGeometry relative="1" as="geometry" />
        </mxCell>
        <mxCell id="LQ0dk2JoQx-oWWSQppy4-4" value="매장관리자정보" style="whiteSpace=wrap;html=1;align=center;fillColor=#dae8fc;strokeColor=#6c8ebf;" vertex="1" parent="1">
          <mxGeometry x="1370" y="538" width="100" height="40" as="geometry" />
        </mxCell>
        <mxCell id="LQ0dk2JoQx-oWWSQppy4-9" value="상품코드" style="ellipse;whiteSpace=wrap;html=1;align=center;fontStyle=4;fillColor=#ffe6cc;strokeColor=#d79b00;" vertex="1" parent="1">
          <mxGeometry x="500" y="660" width="100" height="40" as="geometry" />
        </mxCell>
        <mxCell id="LQ0dk2JoQx-oWWSQppy4-10" value="사용자ID" style="ellipse;whiteSpace=wrap;html=1;align=center;fontStyle=4;fillColor=#ffe6cc;strokeColor=#d79b00;" vertex="1" parent="1">
          <mxGeometry x="-20" y="660" width="100" height="40" as="geometry" />
        </mxCell>
        <mxCell id="LQ0dk2JoQx-oWWSQppy4-11" value="관리자ID" style="ellipse;whiteSpace=wrap;html=1;align=center;fontStyle=4;fillColor=#ffe6cc;strokeColor=#d79b00;" vertex="1" parent="1">
          <mxGeometry x="1220" y="660" width="100" height="40" as="geometry" />
        </mxCell>
        <mxCell id="LQ0dk2JoQx-oWWSQppy4-12" value="매장코드" style="ellipse;whiteSpace=wrap;html=1;align=center;fontStyle=4;fillColor=#ffe6cc;strokeColor=#d79b00;" vertex="1" parent="1">
          <mxGeometry x="850" y="670" width="100" height="40" as="geometry" />
        </mxCell>
        <mxCell id="LQ0dk2JoQx-oWWSQppy4-13" value="재고관리" style="shape=rhombus;perimeter=rhombusPerimeter;whiteSpace=wrap;html=1;align=center;fillColor=#d5e8d4;strokeColor=#82b366;" vertex="1" parent="1">
          <mxGeometry x="580" y="360" width="120" height="60" as="geometry" />
        </mxCell>
        <mxCell id="LQ0dk2JoQx-oWWSQppy4-16" style="rounded=0;orthogonalLoop=1;jettySize=auto;html=1;entryX=0.7;entryY=-0.05;entryDx=0;entryDy=0;entryPerimeter=0;" edge="1" parent="1" source="LQ0dk2JoQx-oWWSQppy4-4" target="LQ0dk2JoQx-oWWSQppy4-11">
          <mxGeometry relative="1" as="geometry" />
        </mxCell>
        <mxCell id="LQ0dk2JoQx-oWWSQppy4-19" value="매장명" style="ellipse;whiteSpace=wrap;html=1;align=center;" vertex="1" parent="1">
          <mxGeometry x="960" y="670" width="100" height="40" as="geometry" />
        </mxCell>
        <mxCell id="LQ0dk2JoQx-oWWSQppy4-20" value="주소" style="ellipse;whiteSpace=wrap;html=1;align=center;" vertex="1" parent="1">
          <mxGeometry x="1070" y="670" width="100" height="40" as="geometry" />
        </mxCell>
        <mxCell id="LQ0dk2JoQx-oWWSQppy4-21" value="상품명" style="ellipse;whiteSpace=wrap;html=1;align=center;" vertex="1" parent="1">
          <mxGeometry x="610" y="660" width="100" height="40" as="geometry" />
        </mxCell>
        <mxCell id="LQ0dk2JoQx-oWWSQppy4-22" value="가격" style="ellipse;whiteSpace=wrap;html=1;align=center;" vertex="1" parent="1">
          <mxGeometry x="720" y="660" width="100" height="40" as="geometry" />
        </mxCell>
        <mxCell id="LQ0dk2JoQx-oWWSQppy4-23" value="비밀번호" style="ellipse;whiteSpace=wrap;html=1;align=center;" vertex="1" parent="1">
          <mxGeometry x="1330" y="670" width="100" height="40" as="geometry" />
        </mxCell>
        <mxCell id="LQ0dk2JoQx-oWWSQppy4-24" value="비밀번호" style="ellipse;whiteSpace=wrap;html=1;align=center;" vertex="1" parent="1">
          <mxGeometry x="130" y="660" width="100" height="40" as="geometry" />
        </mxCell>
        <mxCell id="LQ0dk2JoQx-oWWSQppy4-30" value="매장코드" style="ellipse;whiteSpace=wrap;html=1;align=center;" vertex="1" parent="1">
          <mxGeometry x="1440" y="660" width="100" height="40" as="geometry" />
        </mxCell>
        <mxCell id="LQ0dk2JoQx-oWWSQppy4-33" style="rounded=0;orthogonalLoop=1;jettySize=auto;html=1;entryX=0.44;entryY=-0.05;entryDx=0;entryDy=0;entryPerimeter=0;" edge="1" parent="1" source="LQ0dk2JoQx-oWWSQppy4-3" target="LQ0dk2JoQx-oWWSQppy4-20">
          <mxGeometry relative="1" as="geometry" />
        </mxCell>
        <mxCell id="LQ0dk2JoQx-oWWSQppy4-39" value="" style="fontSize=12;html=1;endArrow=ERoneToMany;rounded=0;entryX=0.5;entryY=1;entryDx=0;entryDy=0;exitX=0.5;exitY=0;exitDx=0;exitDy=0;" edge="1" parent="1" source="LQ0dk2JoQx-oWWSQppy4-1" target="LQ0dk2JoQx-oWWSQppy4-13">
          <mxGeometry width="100" height="100" relative="1" as="geometry">
            <mxPoint x="590" y="530" as="sourcePoint" />
            <mxPoint x="690" y="430" as="targetPoint" />
          </mxGeometry>
        </mxCell>
        <mxCell id="LQ0dk2JoQx-oWWSQppy4-40" value="" style="fontSize=12;html=1;endArrow=ERoneToMany;rounded=0;" edge="1" parent="1" source="LQ0dk2JoQx-oWWSQppy4-3" target="LQ0dk2JoQx-oWWSQppy4-13">
          <mxGeometry width="100" height="100" relative="1" as="geometry">
            <mxPoint x="750" y="530" as="sourcePoint" />
            <mxPoint x="850" y="430" as="targetPoint" />
          </mxGeometry>
        </mxCell>
        <mxCell id="LQ0dk2JoQx-oWWSQppy4-41" value="재고" style="ellipse;whiteSpace=wrap;html=1;align=center;" vertex="1" parent="1">
          <mxGeometry x="470" y="440" width="100" height="40" as="geometry" />
        </mxCell>
        <mxCell id="LQ0dk2JoQx-oWWSQppy4-43" value="" style="endArrow=none;html=1;rounded=0;" edge="1" parent="1" source="LQ0dk2JoQx-oWWSQppy4-13" target="LQ0dk2JoQx-oWWSQppy4-41">
          <mxGeometry relative="1" as="geometry">
            <mxPoint x="490" y="600" as="sourcePoint" />
            <mxPoint x="650" y="600" as="targetPoint" />
          </mxGeometry>
        </mxCell>
        <mxCell id="LQ0dk2JoQx-oWWSQppy4-46" value="" style="edgeStyle=entityRelationEdgeStyle;fontSize=12;html=1;endArrow=ERoneToMany;rounded=0;" edge="1" parent="1" source="LQ0dk2JoQx-oWWSQppy4-3" target="LQ0dk2JoQx-oWWSQppy4-4">
          <mxGeometry width="100" height="100" relative="1" as="geometry">
            <mxPoint x="1230" y="635" as="sourcePoint" />
            <mxPoint x="1330" y="535" as="targetPoint" />
          </mxGeometry>
        </mxCell>
        <mxCell id="LQ0dk2JoQx-oWWSQppy4-47" value="닉네임" style="ellipse;whiteSpace=wrap;html=1;align=center;" vertex="1" parent="1">
          <mxGeometry x="390" y="660" width="100" height="40" as="geometry" />
        </mxCell>
        <mxCell id="LQ0dk2JoQx-oWWSQppy4-48" value="이메일" style="ellipse;whiteSpace=wrap;html=1;align=center;" vertex="1" parent="1">
          <mxGeometry x="270" y="660" width="100" height="40" as="geometry" />
        </mxCell>
      </root>
    </mxGraphModel>
  </diagram>
</mxfile>
